<?xml version="1.0" encoding="utf-8"?>
<!-- Generator: Adobe Illustrator 16.0.0, SVG Export Plug-In . SVG Version: 6.00 Build 0)  -->
<!DOCTYPE svg PUBLIC "-//W3C//DTD SVG 1.1//EN" "http://www.w3.org/Graphics/SVG/1.1/DTD/svg11.dtd">
<svg version="1.1" id="Layer_1" xmlns="http://www.w3.org/2000/svg" xmlns:xlink="http://www.w3.org/1999/xlink" x="0px" y="0px"
	 width="512px" height="512px" viewBox="0 0 512 512" style="enable-background:new 0 0 512 512;" xml:space="preserve">
<g>
	<defs>
		<rect id="SVGID_1_" width="512" height="512"/>
        <style type="text/css">
        <![CDATA[
            @font-face {
                font-family: HappyKiller;
                font-style: normal;
                font-weight: normal;
                src: url('HappyKiller.woff') format('woff');
            }
            .st0{clip-path:url(#SVGID_2_);fill:#135689;}
            .st1{font-size:62.3087px;}
            .st2{fill:#303030;}
            .st3{font-family:'HappyKiller';}
        ]]>
        </style>
	</defs>
	<clipPath id="SVGID_2_">
		<use xlink:href="#SVGID_1_"  style="overflow:visible;"/>
	</clipPath>
	<path class="st0" d="M439,251.9c10.7-53.7-59.1-76.6-84.8-46.3c-4.9-125.9-253.6-135.1-261.8,12C1,211.3-4,356,83.2,356h102.7
		l0.1-31h-46.9c-1.7,4-5.8,6.8-10.6,6.8c-6.3,0-11.5-5.3-11.5-11.6s5.1-11.5,11.5-11.5c4.9,0,9,3.3,10.7,7.3h53.1
		c1.6,0,2.4,2.1,2.4,4.3c0,0.3,0.1,0.7,0.1,1.1l-0.1,34.6h30l0.1-33.4l-44-44.1c-1.4,0.6-2.9,0.9-4.6,0.9c-6.3,0-11.5-5.1-11.5-11.5
		c0-6.3,5.1-11.5,11.5-11.5s11.5,5.1,11.5,11.5c0,1.5-0.3,2.9-0.8,4.2l44.3,44.3c1.4,0.7,2.5,2.4,2.5,4.9l-0.1,34.7h40.6l0.1-34.3
		l-93.5-93.5c-1.4,0.6-2.9,0.9-4.6,0.9c-6.3,0-11.5-5.1-11.5-11.5c0-6.3,5.1-11.5,11.5-11.5s11.5,5.1,11.5,11.5
		c0,1.5-0.3,2.9-0.8,4.1l94.3,94.3c2.4,2.4,2.7,4.9,1.9,6.6l-0.1,33.2h38.8l0.1-34.3l-93.5-93.5c-1.4,0.6-2.9,0.9-4.6,0.9
		c-6.3,0-11.5-5.1-11.5-11.5c0-6.3,5.1-11.5,11.5-11.5s11.5,5.1,11.5,11.5c0,1.5-0.3,2.9-0.8,4.1l94.3,94.3c2.6,2.6,2.8,5.2,1.8,6.9
		l-0.1,32.9h23.1l-1.2-1.4c-5.4-5.4,0.8-11.7,6.2-6.3l5.6,5.6l21.5-21.5l-6-6.1c-5.3-5.4,0.9-11.6,6.3-6.2l6,6l22.3-22.3l-5.6-5.7
		c-5.4-5.4,0.9-11.6,6.3-6.2l5.6,5.7l9.1-9.1l8.9,8.9l6.7-6.6c5.1-5,11.3,1.2,6.2,6.3l-6.6,6.6l22.3,22.3l6.3-6.2
		c5-5,11.3,1.3,6.2,6.3l-6.3,6.2l8.8,8.8c6.7-5.2,12.9-11.5,17.2-18.8C516.2,286.7,493.6,237.5,439,251.9 M334.5,280.4
		c-3.3,0-5.9-2.6-5.9-5.9c0-3.3,2.6-5.9,5.9-5.9c3.3,0,5.9,2.6,5.9,5.9C340.4,277.8,337.7,280.4,334.5,280.4 M346.3,292.2
		c-3.3,0-5.9-2.6-5.9-5.9s2.6-5.9,5.9-5.9c3.3,0,5.9,2.6,5.9,5.9S349.6,292.2,346.3,292.2 M358.1,304.1c-3.3,0-5.9-2.6-5.9-5.9
		c0-3.3,2.6-5.9,5.9-5.9s5.9,2.6,5.9,5.9C364,301.4,361.4,304.1,358.1,304.1 M388.1,276.7c-4.6,0-8.3-3.7-8.3-8.3
		c0-0.5,0.1-0.9,0.1-1.4L363,250h-45.3c-1.5,3-4,3.7-6.9,3.7c-4.6,0-8.3-3.7-8.3-8.3s3.7-8.1,8.3-8.1c2.8,0,5.3,1.7,6.8,3.7h47.8
		c0.6,0,1.2,0,1.6,0.2c0.2,0.1,0.3,0.1,0.5,0.2l0.1,0c0.1,0.1,0.2,0.2,0.4,0.3l18.5,18.5c0.6-0.1,1.1-0.2,1.7-0.2
		c4.6,0,8.3,3.7,8.3,8.2C396.4,273,392.7,276.7,388.1,276.7"/>
</g>
<text transform="matrix(1.132 0 0 1 66.5723 419.8662)" class="st2 st3 st1">Cryptix</text>
</svg>
